# xmcd CD database file
#
# Track frame offsets:
#	150
#	15819
#	48497
#	93689
#	131111
#	166878
#	186884
#	239112
#
# Disc length: 3370 seconds
#
# Revision: 0
# Processed by: cddbd v1.5.2PL0 Copyright (c) Steve Scherf et al.
# Submitted via: CDex 1.81
#
DISCID=680d2808
DTITLE=Armand Coeck - Nightbird
DYEAR=2006
DGENRE=New Age
TTITLE0=Green Valley
TTITLE1=Ceres
TTITLE2=Ballade
TTITLE3=Madreselva
TTITLE4=Fantaisie Concertante
TTITLE5=Enchanted Woods
TTITLE6=Ave Nocturna (Nightbird)
TTITLE7=Rosa Mystica
EXTD=YEAR: 2006
EXTT0=
EXTT1=
EXTT2=
EXTT3=
EXTT4=
EXTT5=
EXTT6=
EXTT7=
PLAYORDER=
